<svg width="25" height="25" viewBox="0 0 25 25" fill="none" xmlns="http://www.w3.org/2000/svg">
<g clip-path="url(#clip0_6610_3340)">
<g clip-path="url(#clip1_6610_3340)">
<path d="M22.5 17.838V7.162C23.681 6.599 24.5 5.393 24.5 4C24.5 2.07 22.93 0.5 21 0.5C19.607 0.5 18.401 1.319 17.838 2.5H7.162C6.599 1.319 5.393 0.5 4 0.5C2.07 0.5 0.5 2.07 0.5 4C0.5 5.393 1.319 6.599 2.5 7.162V17.839C1.319 18.402 0.5 19.608 0.5 21.001C0.5 22.931 2.07 24.501 4 24.501C5.393 24.501 6.599 23.682 7.162 22.501H17.839C18.402 23.682 19.608 24.501 21.001 24.501C22.931 24.501 24.501 22.931 24.501 21.001C24.501 19.608 23.682 18.402 22.501 17.839L22.5 17.838ZM17.536 20.5H7.464C7.244 18.97 6.03 17.756 4.5 17.536V7.464C6.03 7.244 7.244 6.03 7.464 4.5H17.536C17.756 6.03 18.97 7.244 20.5 7.464V17.536C18.97 17.756 17.756 18.97 17.536 20.5ZM21 2.5C21.827 2.5 22.5 3.173 22.5 4C22.5 4.827 21.827 5.5 21 5.5C20.173 5.5 19.5 4.827 19.5 4C19.5 3.173 20.173 2.5 21 2.5ZM4 2.5C4.827 2.5 5.5 3.173 5.5 4C5.5 4.827 4.827 5.5 4 5.5C3.173 5.5 2.5 4.827 2.5 4C2.5 3.173 3.173 2.5 4 2.5ZM4 22.5C3.173 22.5 2.5 21.827 2.5 21C2.5 20.173 3.173 19.5 4 19.5C4.827 19.5 5.5 20.173 5.5 21C5.5 21.827 4.827 22.5 4 22.5ZM21 22.5C20.173 22.5 19.5 21.827 19.5 21C19.5 20.173 20.173 19.5 21 19.5C21.827 19.5 22.5 20.173 22.5 21C22.5 21.827 21.827 22.5 21 22.5Z" fill="#A190CC"/>
</g>
</g>
<defs>
<clipPath id="clip0_6610_3340">
<rect width="24" height="24" fill="white" transform="translate(0.5 0.5)"/>
</clipPath>
<clipPath id="clip1_6610_3340">
<rect width="24" height="24" fill="white" transform="translate(0.5 0.5)"/>
</clipPath>
</defs>
</svg>
