<svg width="25" height="25" viewBox="0 0 25 25" fill="none" xmlns="http://www.w3.org/2000/svg">
<g clip-path="url(#clip0_6610_4529)">
<g clip-path="url(#clip1_6610_4529)">
<path d="M23.499 13.5152C22.93 12.8702 22.11 12.5002 21.25 12.5002H2.25V4.98221C2.25 4.14121 2.63 3.30921 3.343 2.86221C4.432 2.17921 5.762 2.51521 6.45 3.43321L6.709 3.77821L6.226 6.54921C6.168 6.88321 6.237 7.22721 6.42 7.51221C6.845 8.17421 7.743 8.33621 8.372 7.86421L11.978 5.16021C12.545 4.73521 12.688 3.94321 12.305 3.34621L12.292 3.32521C12.055 2.95521 11.652 2.72321 11.213 2.70321L8.307 2.57421L8.133 2.34221C7.475 1.46521 6.54 0.80021 5.464 0.58721C2.69 0.0382097 0.25 2.15621 0.25 4.83321C0.25 4.83321 0.254 10.5432 0.256 12.7562C0.256 13.3322 0.293 13.9012 0.364 14.4732C0.465 15.2822 0.601 16.3732 0.601 16.3732C0.852 18.3782 1.824 20.1402 3.236 21.4102L2.779 23.2602C2.646 23.7962 2.973 24.3382 3.509 24.4712C3.59 24.4912 3.67 24.5002 3.75 24.5002C4.199 24.5002 4.607 24.1952 4.72 23.7402L4.997 22.6192C6.106 23.1832 7.357 23.5002 8.673 23.5002H16.09C17.313 23.5002 18.48 23.2272 19.53 22.7352L19.779 23.7402C19.891 24.1952 20.3 24.5002 20.749 24.5002C20.829 24.5002 20.909 24.4902 20.99 24.4712C21.526 24.3382 21.853 23.7962 21.72 23.2602L21.31 21.6002C22.84 20.3182 23.901 18.4802 24.164 16.3742L24.226 15.8732C24.332 15.0192 24.068 14.1612 23.498 13.5162L23.499 13.5152ZM22.242 15.6242L22.18 16.1252C21.797 19.1892 19.179 21.5002 16.091 21.5002H8.674C5.586 21.5002 2.969 19.1892 2.586 16.1252L2.383 14.5002H21.25C21.541 14.5002 21.808 14.6202 22 14.8382C22.192 15.0572 22.278 15.3352 22.242 15.6242Z" fill="#A190CC"/>
</g>
</g>
<defs>
<clipPath id="clip0_6610_4529">
<rect width="24" height="24" fill="white" transform="translate(0.25 0.5)"/>
</clipPath>
<clipPath id="clip1_6610_4529">
<rect width="24" height="24" fill="white" transform="translate(0.25 0.5)"/>
</clipPath>
</defs>
</svg>
