<svg width="24" height="25" viewBox="0 0 24 25" fill="none" xmlns="http://www.w3.org/2000/svg">
<g clip-path="url(#clip0_6134_3958)">
<g clip-path="url(#clip1_6134_3958)">
<path d="M19 2.5H5C2.243 2.5 0 4.743 0 7.5V21.5C0 22.053 0.448 22.5 1 22.5C1.552 22.5 2 22.053 2 21.5V19.5H22V21.5C22 22.053 22.447 22.5 23 22.5C23.553 22.5 24 22.053 24 21.5V7.5C24 4.743 21.757 2.5 19 2.5ZM5 4.5H19C20.654 4.5 22 5.846 22 7.5V13.5H20C20 11.294 18.206 9.5 16 9.5H15C13.806 9.5 12.734 10.026 12 10.857C11.266 10.025 10.194 9.5 9 9.5H8C5.794 9.5 4 11.294 4 13.5H2V7.5C2 5.846 3.346 4.5 5 4.5ZM13 13.5C13 12.397 13.897 11.5 15 11.5H16C17.103 11.5 18 12.397 18 13.5H13ZM6 13.5C6 12.397 6.897 11.5 8 11.5H9C10.103 11.5 11 12.397 11 13.5H6ZM2 17.5V15.5H22V17.5H2Z" fill="#A190CC"/>
</g>
</g>
<defs>
<clipPath id="clip0_6134_3958">
<rect width="24" height="24" fill="white" transform="translate(0 0.5)"/>
</clipPath>
<clipPath id="clip1_6134_3958">
<rect width="24" height="24" fill="white" transform="translate(0 0.5)"/>
</clipPath>
</defs>
</svg>
