<svg width="24" height="24" viewBox="0 0 24 24" fill="none" xmlns="http://www.w3.org/2000/svg">
<g clip-path="url(#clip0_6582_1973)">
<g clip-path="url(#clip1_6582_1973)">
<path d="M8.293 15.36C7.903 15.75 7.903 16.384 8.293 16.775L10.312 18.794C10.703 19.185 10.703 19.817 10.312 20.208C10.117 20.403 9.861 20.501 9.605 20.501C9.349 20.501 9.093 20.403 8.898 20.208L6.879 18.189C5.709 17.02 5.709 15.116 6.879 13.946L8.941 11.884C9.332 11.493 9.964 11.493 10.355 11.884C10.746 12.274 10.746 12.907 10.355 13.298L8.293 15.36ZM15.059 11.883C14.668 11.492 14.036 11.492 13.645 11.883C13.254 12.273 13.254 12.906 13.645 13.297L15.707 15.359C16.097 15.749 16.097 16.383 15.707 16.774L13.688 18.793C13.297 19.184 13.297 19.816 13.688 20.207C13.883 20.402 14.139 20.5 14.395 20.5C14.651 20.5 14.907 20.402 15.102 20.207L17.121 18.188C18.291 17.019 18.291 15.115 17.121 13.945L15.059 11.883ZM22 10.485V19C22 21.757 19.757 24 17 24H7C4.243 24 2 21.757 2 19V5C2 2.243 4.243 0 7 0H11.515C13.385 0 15.142 0.728 16.465 2.05L19.95 5.535C21.272 6.857 22 8.615 22 10.485ZM15.05 3.464C14.732 3.146 14.379 2.877 14 2.659V7C14 7.551 14.449 8 15 8H19.341C19.123 7.621 18.854 7.267 18.536 6.95L15.051 3.465L15.05 3.464ZM20 10.485C20 10.322 19.992 10.16 19.977 10H15C13.346 10 12 8.654 12 7V2.023C11.84 2.008 11.678 2 11.515 2H7C5.346 2 4 3.346 4 5V19C4 20.654 5.346 22 7 22H17C18.654 22 20 20.654 20 19V10.485Z" fill="#A190CC"/>
</g>
</g>
<defs>
<clipPath id="clip0_6582_1973">
<rect width="24" height="24" fill="white"/>
</clipPath>
<clipPath id="clip1_6582_1973">
<rect width="24" height="24" fill="white"/>
</clipPath>
</defs>
</svg>
