<svg width="25" height="25" viewBox="0 0 25 25" fill="none" xmlns="http://www.w3.org/2000/svg">
<g clip-path="url(#clip0_6610_389)">
<g clip-path="url(#clip1_6610_389)">
<path d="M21.49 10.812L17.19 4.641C16.7291 3.97978 16.1153 3.43977 15.4007 3.06698C14.6861 2.69419 13.892 2.49967 13.086 2.5H9.25C8.23602 2.50344 7.24682 2.81361 6.41242 3.38975C5.57802 3.96589 4.93748 4.78102 4.575 5.728L2.503 11.192C1.96314 11.5586 1.52116 12.0517 1.2156 12.6283C0.910048 13.2049 0.7502 13.8474 0.75 14.5L0.75 16C0.750821 16.5761 0.950173 17.1343 1.31447 17.5805C1.67877 18.0268 2.18575 18.3339 2.75 18.45V19C2.75 19.9283 3.11875 20.8185 3.77513 21.4749C4.4315 22.1313 5.32174 22.5 6.25 22.5C7.17826 22.5 8.0685 22.1313 8.72487 21.4749C9.38125 20.8185 9.75 19.9283 9.75 19V18.5H15.75V19C15.75 19.9283 16.1187 20.8185 16.7751 21.4749C17.4315 22.1313 18.3217 22.5 19.25 22.5C20.1783 22.5 21.0685 22.1313 21.7249 21.4749C22.3813 20.8185 22.75 19.9283 22.75 19V18.45C23.3143 18.3339 23.8212 18.0268 24.1855 17.5805C24.5498 17.1343 24.7492 16.5761 24.75 16V15.5C24.7486 14.4796 24.4356 13.484 23.8531 12.6462C23.2705 11.8085 22.4461 11.1686 21.49 10.812ZM15.55 5.784L18.834 10.5H11.75V4.5H13.086C13.5698 4.49948 14.0466 4.61597 14.4756 4.83955C14.9047 5.06313 15.2733 5.38716 15.55 5.784ZM6.45 6.437C6.6671 5.86954 7.05063 5.38093 7.5503 5.03527C8.04996 4.68961 8.64243 4.50303 9.25 4.5H9.75V10.5H4.904L6.45 6.437ZM7.75 19C7.75 19.3978 7.59196 19.7794 7.31066 20.0607C7.02936 20.342 6.64782 20.5 6.25 20.5C5.85218 20.5 5.47064 20.342 5.18934 20.0607C4.90804 19.7794 4.75 19.3978 4.75 19V18.5H7.75V19ZM19.25 20.5C18.8522 20.5 18.4706 20.342 18.1893 20.0607C17.908 19.7794 17.75 19.3978 17.75 19V18.5H20.75V19C20.75 19.3978 20.592 19.7794 20.3107 20.0607C20.0294 20.342 19.6478 20.5 19.25 20.5ZM22.75 16C22.75 16.1326 22.6973 16.2598 22.6036 16.3536C22.5098 16.4473 22.3826 16.5 22.25 16.5H3.25C3.11739 16.5 2.99021 16.4473 2.89645 16.3536C2.80268 16.2598 2.75 16.1326 2.75 16V14.5C2.75 13.9696 2.96071 13.4609 3.33579 13.0858C3.71086 12.7107 4.21957 12.5 4.75 12.5H19.75C20.5456 12.5 21.3087 12.8161 21.8713 13.3787C22.4339 13.9413 22.75 14.7044 22.75 15.5V16Z" fill="#A190CC"/>
</g>
</g>
<defs>
<clipPath id="clip0_6610_389">
<rect width="24" height="24" fill="white" transform="translate(0.75 0.5)"/>
</clipPath>
<clipPath id="clip1_6610_389">
<rect width="24" height="24" fill="white" transform="translate(0.75 0.5)"/>
</clipPath>
</defs>
</svg>
